<?xml version="1.0" encoding="UTF-8"?><svg id="a" xmlns="http://www.w3.org/2000/svg" viewBox="0 0 500.0506 299.116"><defs><style>.o{fill:#7f5d4c;}.o,.p,.q,.r,.s,.t,.u,.v,.w{stroke-width:0px;}.p{fill:#000;}.q{fill:#60a5fa;}.r{fill:#e33a25;}.s{fill:#dea584;}.t{fill:#8f1e1c;}.u{fill:#030404;}.v{fill:#fff;}.w{fill:#e43a25;}</style></defs><g id="b"><rect class="v" x="75.2735" y="193.6624" width="241.2" height="43.7029"/><path class="v" d="M79.3506,220.8622c-16.8662,0-26.8989-4.208-29.8193-12.5068-.1172-.332-.2095-.6729-.2769-1.0176l-17.8433-91.356c-.0254-.1284-.0469-.2578-.0649-.3877l-.0361-.2588c-.376-2.6406.3086-5.2935,1.9302-7.4507,1.5913-2.1167,3.9019-3.5137,6.5298-3.9556l4.7573-.9707c-2.5654-4.6768-2.2476-8.6899-1.499-11.2759.5146-1.7778,1.334-3.2803,2.2568-4.5273-.4917-1.7285-.4253-3.5908.2324-5.3198.5781-1.5044,1.5679-2.7886,2.814-3.7266-.0098-1.5786.4238-3.1499,1.2886-4.5298.8501-1.3647,2.0474-2.4263,3.4409-3.1001.2979-1.5342,1.0215-2.9756,2.1245-4.1523,1.0762-1.1484,2.4541-1.9619,3.9526-2.3613.5913-1.4414,1.5835-2.7119,2.9004-3.6509,1.2588-.9072,2.7505-1.4385,4.3193-1.5347.8613-1.2837,2.0747-2.3198,3.54-2.9746,1.062-.478,2.2114-.7251,3.397-.7251.3906,0,.7773.0269,1.1587.0796,1.1025-1.0762,2.4956-1.8506,4.0317-2.1899.6006-.1309,1.1978-.1953,1.793-.1953.9575,0,1.8999.1665,2.7876.4824,1.2939-.8281,2.814-1.3027,4.3926-1.3228.0303,0,.0747-.0005.105-.0005,1.5352,0,3.0269.4346,4.314,1.2134.9443-.3638,1.9561-.5557,2.9888-.5557.5225,0,1.0474.0498,1.5605.1475,1.5581.3003,2.9795,1.042,4.1152,2.0967.4492-.0752.9053-.1138,1.3633-.1138,1.1113,0,2.1948.2183,3.2202.6489,1.4727.6138,2.708,1.6177,3.5991,2.8789,1.5625.0581,3.0669.5508,4.3682,1.4341,1.3315.8994,2.3511,2.1411,2.9771,3.5684,1.5142.3643,2.9204,1.1494,4.0225,2.2729,1.126,1.1465,1.8818,2.5669,2.2163,4.0898,1.4155.6431,2.645,1.6816,3.5308,3.0303.8916,1.3506,1.3608,2.9043,1.3896,4.4775,1.271.9062,2.2891,2.1611,2.8975,3.6382.667,1.6255.8066,3.3789.4429,5.0352,2.7563,3.541,3.9321,8.4014,1.8628,14.1167-.417,1.2798-1.209,2.6895-2.4248,4.853-.2646.4717-.6138,1.0854-1.0215,1.7852,4.4355,5.3291,7.3384,11.8301,8.3291,18.813,1.0522,7.4165-.3105,14.7207-3.9556,21.4663,2.2451,1.9038,4.4185,4.2622,6.2744,7.3726,3.3506,5.4536,5.4385,10.9595,6.2061,16.3667,3.8242,26.9482-23.9932,45.2793-53.4482,49.459-2.8403.4033-7.7578.834-13.0396.834h-.0015ZM92.2569,181.0761c4.7617-1.0176,7.4028-3.1699,7.2207-4.4551-.105-.7373-.2993-2.1094-5.0962-2.1094-1.019,0-2.1465.0762-3.3604.2246l1.2358,6.3398ZM84.3238,140.3661c5.1201-1.5229,7.5601-3.3145,7.2715-5.3506-.3911-2.7534-3.5913-3.3311-6.2075-3.3311-.8442,0-1.7568.0635-2.7153.1885l1.6514,8.4932Z"/><path class="v" d="M87.5633,59.1864c.3806,0,.7352.2025.9398.5374l2.0427,3.3459c.3148.0231.6287.0521.9424.0844l2.5548-2.9314c.2126-.2435.5123-.3786.8228-.3786.0671,0,.1347.0063.202.0192.3804.0731.6949.3465.8346.7222l1.3732,3.6865c.3095.0883.6152.1811.9196.2779l3.0493-2.3482c.1938-.1499.4259-.2273.6602-.2273.1394,0,.2795.0274.4127.0833.3585.1491.6173.4818.6841.8766l.6591,3.8975c.2845.1491.5659.3038.8462.4597l3.4321-1.6847c.1507-.0738.3124-.1104.4736-.1104.212,0,.423.0632.6069.1881.3239.2186.5157.5974.5064.9987l-.0836,3.9644c.249.2018.4954.4079.7377.6168l3.6897-.9563c.0885-.0229.1782-.0341.2673-.0341.2872,0,.5677.1161.7777.3301.2763.2813.393.6903.3096,1.0834l-.8248,3.8708c.2071.2467.41.498.61.7518l3.798-.1857c.0185-.001.0369-.0014.0553-.0014.3659,0,.7071.1881.9146.5041.2185.3303.2581.7561.1009,1.1252l-1.5278,3.6209c.1562.2873.3119.5769.4605.8711l3.7522.5885c.381.0601.7055.3217.8574.69.152.3703.111.795-.1108,1.1241l-1.9749,2.9393c1.9045.8405,6.6481,3.6504,4.1992,10.0681.0135.2535-3.0462,5.9329-5.6994,9.9119,5.9261,5.0669,9.3031,11.7948,10.2994,18.8166,1.2289,8.6605-1.8982,16.356-6.7225,22.3162,4.0408,2.4595,7.4175,4.8818,10.0169,9.259,2.9128,4.7296,4.6251,9.3652,5.2307,13.6309,3.1182,21.9744-21.4344,37.5902-47.2867,41.2591-2.4905.3534-7.0176.7616-12.0205.7616-9.5381,0-20.8049-1.4841-22.9792-7.662l-17.8434-91.3559-.0363-.2585c-.2204-1.5511.8889-3.0279,2.5693-3.2652l14.8659-3.0331c.4156-.2404.8658-.4672,1.2979-.7012-2.9911-3.3015-6.0846-7.2421-6.1115-7.4637-4.3544-7.2916,3.0779-11.0564,3.0779-11.0564.0334.0057.0669.0127.1004.02.1129-.0694.2396-.1146.3596-.1719l-2.2168-3.1263c-.2285-.3234-.2815-.7469-.1392-1.1208.1433-.373.4606-.6425.8401-.7114l3.7361-.6823c.1424-.2979.2906-.5913.4399-.8824l-1.6194-3.5814c-.1643-.3651-.1372-.7918.0734-1.1273.2067-.3318.5619-.527.9388-.527.0062,0,.0124,0,.0185.0002l3.8015.0904c.193-.2587.3898-.514.5889-.7667l-.92-3.8491c-.0929-.391.0129-.8026.2831-1.0908.2115-.2261.4999-.3495.7971-.3495.0802,0,.1611.009.2412.0274l3.7117.8634c.2383-.2148.4788-.4269.7219-.635l-.182-3.9611c-.0196-.4009.163-.7844.481-1.011.1874-.135.4072-.2039.6285-.2039.1525,0,.3057.0327.4496.0991l3.4729,1.5982c.2768-.1639.5544-.3244.835-.4808l.5616-3.9127c.0566-.3963.3079-.7355.6609-.8934.1407-.0633.2898-.0945.4383-.0945.2254,0,.4493.0717.6397.2115l3.1063,2.2711c.3026-.1037.6059-.2048.9121-.301l1.2816-3.7197c.1295-.3791.4376-.6594.8159-.743.0757-.0165.152-.0246.2278-.0246.3007,0,.5936.127.8061.3582l2.6276,2.8663c.3123-.0399.6268-.0768.9409-.1079l1.9591-3.396c.1968-.344.5528-.5563.9377-.5611.0045,0,.0091,0,.0136,0M112.2922,102.7422c-.0009-.0005-.0017-.0009-.0026-.0013.2966-1.2222.7563-2.739,1.3008-4.2919-.4489.1523-.8756.3107-1.3502.4555-.3361,1.0094-.8271,2.0941-1.5352,3.1417.5401.2228,1.0701.454,1.5871.6961M61.2643,105.3302c.7942-.3554,1.6162-.693,2.4462-1.026h.0003s-.0002,0-.0003,0c-.0004.0002-.0009.0003-.0012.0005-1.4897-1.503-3.3614-3.7061-4.5387-5.1618.7729,2.1065,1.507,4.2613,2.0937,6.1874M106.7723,100.6637c.1375-.1485.2702-.3066.3997-.4761-.3907.0836-.7708.1708-1.1721.2499.2617.0717.5152.1505.7724.2262M116.6301,105.1486c.2127-1.5087.4842-3.1689.7893-4.8641-.9041,1.0633-2.0977,2.4045-3.155,3.4583.8172.4467,1.6125.9106,2.3657,1.4058M65.6614,103.5552c.2808-.1033.5649-.2035.8488-.3042-.6842-.8281-1.2137-1.6988-1.6178-2.5562.323,1.0561.5901,2.0419.769,2.8603M70.7663,101.8725c.6158-.1787,1.2415-.342,1.8673-.5074-1.0041-.1319-1.981-.2775-2.9318-.4372.3373.3782.6974.683,1.0645.9445M78.6368,149.1185c6.2975-1.1581,21.7168-4.0053,20.1391-15.1218-.7351-5.1807-4.9597-9.5656-13.388-9.5651-1.2452,0-2.5835.0959-4.0145.299-2.4559.3488-4.8747.9562-7.1279,1.8026l4.3913,22.5854M86.4363,188.8957c1.8286,0,3.5138-.1082,5.1806-.3454,9.5653-1.3581,15.9584-6.4843,15.0412-12.9474-.7852-5.5351-5.0276-8.3445-12.2762-8.3441-1.5537,0-3.247.1293-5.0724.3884-2.4559.3488-4.764.8074-6.795,1.3599l3.8769,19.8885c.015,0,.0298,0,.0448,0M87.5654,44.6808h-.0021c-.0589,0-.1314.0005-.1903.0012-1.7879.0219-3.5353.3551-5.1735.9591-.6344-.0794-1.2761-.1199-1.9212-.1199-1.1136,0-2.23.1203-3.3183.3577-1.7509.3867-3.3994,1.0699-4.8853,1.9951-1.7874.1386-3.5227.583-5.1732,1.3262-1.6392.7333-3.1106,1.7269-4.3717,2.9252-1.6772.4867-3.2681,1.2578-4.7186,2.2957-1.4806,1.0583-2.7401,2.3412-3.7472,3.7843-1.5495.8079-2.968,1.8761-4.1802,3.1721-1.2346,1.3165-2.2134,2.8134-2.9174,4.4196-1.363,1.0919-2.5539,2.4243-3.5127,3.9638-.9623,1.5442-1.6354,3.216-2.0139,4.9409-1.1297,1.3269-2.0451,2.8473-2.6839,4.51-.7854,2.0641-1.122,4.2221-1.0274,6.3466-.6592,1.2374-1.2314,2.6039-1.6668,4.1078-.7495,2.5891-.9771,5.2773-.6979,7.9608-3.0516,1.1249-5.7324,3.0758-7.76,5.6896-2.8615,3.6887-4.127,8.448-3.4718,13.0574l.0327.2335c.0359.256.0787.511.1282.7647l17.8434,91.3559c.1349.6909.32,1.3711.5537,2.0351,4.0523,11.5139,16.3873,17.3519,36.6621,17.3519,7.1234,0,12.5614-.6931,14.0583-.9055,15.9588-2.2648,30.6876-8.2148,41.4733-16.7538,13.8797-10.9886,20.321-25.5156,18.1372-40.905-.9065-6.3855-3.3227-12.812-7.1826-19.1043-1.1779-1.9688-2.4529-3.6941-3.7944-5.2284,2.5891-6.7008,3.4531-13.8178,2.4519-20.8734-.9373-6.6057-3.3107-12.8509-6.8952-18.325.6396-1.2003,1.1874-2.3378,1.601-3.5016,2.4462-6.6532,1.8834-13.2874-1.1808-18.6863-.0203-1.9645-.41-3.9378-1.1804-5.8154-.6832-1.6565-1.6397-3.1616-2.8058-4.4655-.4243-1.7289-1.1467-3.3969-2.1605-4.929-.9898-1.4968-2.2072-2.7874-3.5908-3.8385-.7422-1.5857-1.7557-3.0568-3.0202-4.3442-1.2394-1.2627-2.686-2.2966-4.2594-3.0677-1.0497-1.4268-2.351-2.6859-3.8706-3.7113-1.4548-.9883-3.062-1.7161-4.7543-2.1599-1.3022-1.1752-2.814-2.1389-4.4925-2.8368-1.6211-.6802-3.3554-1.0773-5.1388-1.1725-1.5131-.8922-3.1815-1.5346-4.9418-1.8729-.9738-.1864-1.9594-.2799-2.9399-.2799-.7809,0-1.5547.0585-2.3166.1731-1.5894-.5417-3.272-.8305-4.9839-.8308h0Z"/><path class="v" d="M164.2544,207.4726c-4.7964,0-8.8965-3.5322-9.7495-8.3975-.0161-.0938-.0308-.1885-.0439-.2822l-8.5068-63.085c-.0171-.1235-.0303-.2476-.0405-.3721-.4375-5.2959,3.1699-9.9512,8.3921-10.8276.0801-.0132.1606-.0254.2412-.0361l25.9106-3.458c.1069-.0142.2139-.0264.3213-.0356l.2598-.0229c.3042-.0249.561-.0356.8174-.0356,4.9556,0,9.1694,3.7935,9.7021,8.6816l8.502,63.0918c.0171.1289.0312.2578.0415.3867l.021.2607c.4121,4.9736-3.1772,9.6025-8.1733,10.5215-.1167.0215-.2344.04-.3521.0566l-25.9106,3.46c-.1201.0156-.2407.0283-.3613.0391l-.2593.0215c-.2749.0225-.5439.0332-.8105.0332h-.001Z"/><path class="v" d="M181.8555,128.1727c1.2365,0,2.3954,1.0338,2.4985,2.2755l8.5179,63.2141.0213.2603c.108,1.3015-.9659,2.5693-2.2559,2.8066l-25.9107,3.4599-.2594.0212c-.0719.006-.1429.0089-.2132.0089-1.3303,0-2.3686-1.047-2.6049-2.3958l-8.5074-63.0849c-.1292-1.56.8145-2.8172,2.3648-3.0775l25.9107-3.4582.2594-.023c.0598-.0049.1194-.0073.1788-.0073M181.8556,113.6671c-.4507,0-.907.0186-1.3562.0551-.0346.0028-.0692.0057-.1038.0088l-.2594.023c-.2131.0189-.4258.0425-.6379.0708l-25.9107,3.4582c-.1614.0215-.3225.0458-.4832.0728-8.9727,1.5067-15.1713,9.4944-14.4187,18.5803.0205.2477.0474.4948.0806.7411l8.5074,63.0849c.0254.1886.0545.3767.0874.5642,1.4614,8.3431,8.5659,14.3986,16.8929,14.3986.4683,0,.9427-.0197,1.4102-.0583l.2454-.0201c.2463-.0201.4919-.0466.7369-.0793l25.9107-3.46c.2356-.0315.4704-.0687.7042-.1117,8.618-1.5852,14.8061-9.6112,14.0878-18.2719l-.0201-.2454c-.0206-.2516-.0477-.5027-.0815-.753l-8.4913-63.0161c-.9802-8.4778-8.3004-15.0421-16.9008-15.0421h0Z"/><path class="v" d="M165.2876,134.4985c-13.6938-.0015-25.3042-10.6523-26.4321-24.2476-.5879-7.0898,1.6104-13.9727,6.1895-19.3799,4.5796-5.4087,11.0063-8.7104,18.0967-9.2979.7275-.0605,1.4668-.0913,2.1958-.0913,13.6416,0,25.2168,10.7119,26.3516,24.3862,1.2051,14.5298-9.6357,27.3315-24.1655,28.5376-.7422.0615-1.4932.0928-2.2334.0928h-.0024Z"/><path class="v" d="M165.3379,88.7349c9.8637,0,18.283,7.6089,19.1232,17.7327.8738,10.5374-7.0005,19.8354-17.5379,20.7101-.5495.0456-1.0936.0679-1.6349.0679-9.9665,0-18.3757-7.5997-19.2045-17.5943-.8845-10.6667,6.989-19.9665,17.6566-20.85.5364-.0445,1.0685-.0663,1.5975-.0663M165.3379,74.2293c-.929,0-1.8703.0391-2.798.1161-9.0182.747-17.1981,4.9514-23.0299,11.8384-5.8308,6.886-8.6301,15.6459-7.8822,24.6661.7034,8.4824,4.5584,16.3175,10.8549,22.0622,6.2474,5.7,14.3466,8.8391,22.8057,8.8391.9409,0,1.8948-.0396,2.8351-.1177,18.515-1.5369,32.329-17.8501,30.7937-36.3648-.7064-8.5114-4.5462-16.3734-10.8122-22.1386-6.2383-5.7398-14.3238-8.9009-22.767-8.9009h0Z"/><path class="v" d="M387.2774,243.4814c-1.6045,0-3.1631-.3193-4.6328-.9482-3.1807-1.3643-14.6484-9.9375-16.749-25.4697l-1.9717,5.334c-.043.1152-.0879.2305-.1367.3438-1.6143,3.7637-5.2373,6.1953-9.2314,6.1953-1.0439,0-2.0801-.1641-3.0811-.4883-.0869-.0283-.1729-.0576-.2578-.0889l-22.8369-8.3564c-.1191-.0439-.2383-.0908-.3545-.1406l-.2402-.1025c-2.7734-1.1924-4.7012-3.5469-5.4639-6.3135-1.5898,1.0479-3.4658,1.6367-5.4316,1.6367-1.0479,0-2.0889-.166-3.0938-.4932-.0957-.0312-.1904-.0645-.2852-.0996l-22.9053-8.5273c-.1035-.0381-.2061-.0791-.3066-.1221l-.2412-.1025c-4.6611-1.9971-6.9385-7.2754-5.3164-12.2861.0322-.0996.0674-.1982.1035-.2969l23.7168-63.6938c.0391-.105.0801-.2085.124-.3115l.1025-.2407c1.5674-3.6567,5.1191-6.0103,9.0547-6.0103,1.0098,0,2.0117.1543,2.9795.458.1162.0366.2305.0757.3447.1182l6.4482,2.3877c7.2285.6968,14.0898,2.4185,20.4102,5.1226,5.3623,2.2964,10.1064,5.2168,14.1406,8.7007,8.4746.645,16.3262,2.4956,23.375,5.5132,25.166,10.7744,35.9551,35.0938,26.8457,60.5156-2.7471,7.6904-2.9365,11.4316-.7773,15.3887.0322.0596.0635.1201.0947.1797.8018,1.5732,2.9307,5.751,1.0293,10.1924-1.1289,2.6416-3.3828,4.6572-6.1992,5.5518-2.5186,1.1455-6.752,2.7246-14.1826,5.4941-.0518.0195-.1045.0381-.1582.0566-1.752.6074-3.3604.9033-4.916.9033h0Z"/><path class="v" d="M317.8426,130.1519c.2681,0,.5399.041.806.1246l7.3555,2.7234c6.9943.579,13.4069,2.1886,19.1679,4.6534,5.4006,2.3125,10.0824,5.3103,13.9921,9.1155,8.9146.4073,16.8005,2.2205,23.522,5.0979,21.1236,9.043,30.9032,28.9917,22.8722,51.4018-2.8588,8.0071-4.0567,14.4525-.316,21.3087.463.9083,1.3891,2.7251.8242,4.0443-.2567.6003-.8057,1.2182-1.7822,1.5104-.1027.239-14.4658,5.5937-14.4658,5.5937-.9803.3397-1.8037.5029-2.5413.5029-.6426,0-1.2202-.124-1.7792-.363-1.6804-.7207-18.9306-12.5065-10.2497-36.7669,4.9491-13.22,4.4834-19.0988-1.946-22.9872l-16.1816,43.7718c-.4899,1.1429-1.4877,1.8003-2.5644,1.8003-.2794,0-.5643-.0443-.8469-.1359l-22.8376-8.3559-.2399-.1027c-1.1996-.5152-1.6981-2.0062-1.2527-3.3767l9.6406-25.8381c4.5888-12.379,4.2267-18.5003-3.0775-22.3357l-16.4906,44.4907c-.489,1.1436-1.4855,1.8012-2.5615,1.8012-.2801,0-.5656-.0446-.8489-.1367l-22.9058-8.5277-.2408-.1027c-1.1996-.5135-1.6972-2.0044-1.2527-3.3767l23.7168-63.694.1027-.2408c.4446-1.0386,1.3891-1.5996,2.3813-1.5996M317.8426,115.6462c-6.8433,0-13.0122,4.0807-15.7161,10.396l-.1102.2581c-.0887.208-.1727.4182-.2516.6302l-23.7168,63.694c-.0729.1959-.1417.3934-.2061.5922-2.7863,8.6025,1.231,17.7086,9.3445,21.1815l.2593.1106c.2076.0885.4172.1721.6286.2509l22.9059,8.5277c.1897.0706.3809.1372.5734.1999,1.7303.5629,3.5258.8484,5.3365.8484.721,0,1.4348-.0454,2.1381-.134,1.5836,1.7683,3.5644,3.2211,5.8792,4.2153l.2568.11c.2385.1021.4797.1978.7234.2869l22.8376,8.356c.1694.062.34.1208.5116.1765,1.725.5591,3.5148.8427,5.3195.8427,3.3657,0,6.5746-.9895,9.2989-2.75.0036.0064.0072.0127.0108.0191,4.5814,8.0888,11.4611,13.8285,15.9144,15.7385,2.39,1.0221,4.9077,1.5374,7.4968,1.5374,2.3766,0,4.7614-.426,7.2906-1.3024.1064-.0368.2123-.075.3178-.1143,0,0,3.6321-1.3541,7.2772-2.7383,1.8607-.7067,3.7245-1.4213,5.13-1.9744.762-.2999,1.5886-.6252,2.4391-1.0159,4.3635-1.6777,7.8462-4.9947,9.6718-9.2636,2.1465-5.0126,1.731-10.5107-1.2377-16.3351-.0616-.1209-.1251-.2411-.1901-.3602-.6367-1.1671-1.2951-2.3738,1.2434-9.4838,5.1913-14.4861,4.8565-28.8861-.9741-41.6271-5.6624-12.3734-15.9845-22.0512-29.8505-27.9872-7.1262-3.0506-14.9595-5.0186-23.346-5.8706-4.1685-3.2971-8.9139-6.093-14.1669-8.3424-6.73-2.8794-13.9899-4.752-21.6113-5.5774l-5.5854-2.068c-.2276-.0843-.4573-.1628-.6888-.2356-1.6717-.5252-3.4056-.7915-5.1537-.7915h0Z"/><path class="v" d="M424.1026,291.8632c-2.835,0-6.9893-.9014-10.6807-5.1934l-1.0166-1.1777c-12.9482-15.0391-14.7402-29.4248-13.9648-38.8457.999-12.1191,6.6982-23.2275,16.0498-31.2783,8.2773-7.127,18.6299-11.0518,29.1514-11.0518,9.7549,0,24.2812,3.3662,38.0918,19.4062,21.1514,24.5625,7.5449,47.6943-3.8301,57.4902-4.1758,3.5957-8.7393,5.4189-13.5645,5.4189h-.001c-3.8564,0-7.8223-1.1865-11.7881-3.5264-1.3682-.8047-2.791-1.7441-4.2295-2.7705-.5967,1.5029-1.5547,2.8789-2.8682,4.0098-3.0078,2.5889-17.0508,6.8838-17.1924,6.9268-.1133.0342-.2266.0654-.3408.0947-1.3281.335-2.5771.4971-3.8164.4971Z"/><path class="v" d="M443.6415,211.5685c10.6555,0,22.2032,4.8154,32.5963,16.8864,21.1271,24.5367.1983,44.45-3.0669,47.2619-2.6192,2.2554-5.5123,3.6624-8.8322,3.6624-2.4482,0-5.1288-.7654-8.1019-2.5203-5.5865-3.2864-12.9783-9.6716-17.6061-14.6455-1.3635-1.583-1.097-2.6737-.2497-4.0921,2.2426-3.9982,7.0545-11.4157,7.4503-11.7556.4342-.3735.882-.5401,1.3528-.54.7099,0,1.4717.379,2.316.9986,3.9396,2.8914,5.5071,4.0117,6.5698,4.0117.4524,0,.8132-.203,1.2267-.5588.8906-.7667,2.4382-5.3741-1.1404-9.5282-2.0677-2.4018-5.0231-3.686-8.2339-3.686-3.1379,0-6.5198,1.2276-9.5519,3.8383-7.0244,6.0487-10.51,18.0081.139,30.3746.5958.6942,1.2775,1.4857,1.9725,2.093l.1709.1965c1.1926,1.3865,1.7503,3.8336.0682,5.282-.9899.8517-9.9319,4.0726-14.5738,5.4857-.664.1672-1.3474.2774-2.0443.2774-1.6798,0-3.4371-.6409-5.1829-2.6696l-1.0226-1.1864c-19.3379-22.4596-13.7133-46.9431,1.3254-59.8905,6.5774-5.6637,15.1609-9.2955,24.4186-9.2955M443.6415,197.0629c-12.2576,0-24.2911,4.549-33.8837,12.809-10.8033,9.3011-17.3898,22.1501-18.5454,36.1794-.8897,10.8012,1.1106,27.2317,15.6927,44.1677l1.0273,1.192c4.2734,4.9657,10.0187,7.705,16.1705,7.705,1.8442,0,3.6714-.2344,5.5861-.7165.229-.0576.4565-.1208.6825-.1896,2.6108-.7948,6.239-2.0313,9.4686-3.227,5.775-2.1381,8.1296-3.2871,10.1604-4.986,4.7233,2.5778,9.5459,3.8879,14.3382,3.8879,6.6114,0,12.7675-2.4144,18.2972-7.176,2.4268-2.0898,10.6698-9.8221,14.8757-21.5966,5.565-15.579,1.9136-31.9588-10.2816-46.1221-15.6036-18.123-32.3162-21.9272-43.5885-21.9272h0Z"/><path class="v" d="M30.9888,246.6464c-17.0479-.001-19.7393-3.1758-21.1851-4.8818-1.4209-1.6758-2.1948-3.793-2.2979-6.29-.002-.0469-.248-11.1816-.248-11.1816-.0923-2.8457,1.0698-5.5049,3.1978-7.3096,1.6274-1.3779,3.7241-2.1338,5.9087-2.1338.5566,0,1.1191.0488,1.6714.1445.0605.0107.1211.0215.1816.0342,4.2314.8438,18.5278,2.2197,23.7769,2.6514,2.4971.2041,4.6514,1.2939,6.228,3.1514,1.1411,1.3525,1.8501,3.0068,2.0293,4.708l1.2422,9.6602c.499,3.3232-.5752,6.3799-2.9614,8.4072-1.3477,1.1416-3.5898,3.04-17.5405,3.04h-.0029Z"/><path class="v" d="M16.3645,222.1028c.1516,0,.2983.0143.434.0377,5.1501,1.027,21.2883,2.4949,24.6013,2.7676.6445.0531.9969.2674,1.2926.6162.1691.2001.3302.4905.3496.8163l1.2706,9.8788c.1239.7526.0203,1.4378-.4772,1.8611-.9373.794-6.712,1.3127-12.8426,1.3127-6.8988,0-14.2478-.6572-15.656-2.3185-.4223-.4976-.5533-1.1563-.5843-1.9l-.2444-11.0917c-.0318-.7437.24-1.2306.6384-1.5688.3637-.3075.8089-.4113,1.218-.4113M16.3645,207.5972c-3.896,0-7.6546,1.3637-10.5833,3.8398-3.8374,3.2574-5.9263,7.9976-5.7733,13.0513l.2425,11.0059c.0021.0949.0051.1898.0091.2847.173,4.1511,1.5251,7.7453,4.0186,10.6829,3.7812,4.4609,9.7749,7.437,26.7147,7.437,15.3405,0,19.2634-2.2469,22.2184-4.7501,4.2782-3.6393,6.2993-9.1947,5.4682-14.9374l-1.2268-9.539c-.3497-3.1007-1.6405-6.0963-3.6808-8.5107-2.8203-3.3265-6.7859-5.3481-11.1813-5.7101-5.9164-.487-19.3807-1.8237-22.955-2.5365-.1217-.0243-.2438-.047-.3661-.0681-.9585-.1657-1.9358-.2497-2.9048-.2497h0Z"/><path class="v" d="M72.3086,258.2421c-2.6538,0-5.0127-1.0605-6.6421-2.9854-1.0312-1.207-1.6914-2.7041-1.9971-4.5518-.04-.2441-.0679-.4893-.083-.7363l-.374-6.0469c-.2026-2.8008.8706-5.4756,2.8833-7.1738,1.041-.8848,2.855-1.96,5.4692-1.96.271,0,.5249.0127.7466.0283l4.1021.2021-.0005.001c2.5.1113,4.7056,1.2002,6.3213,3.0967,1.1621,1.375,1.9204,3.0947,2.1646,4.8828l.772,4.9775c.0137.0898.0464.3525.0464.3525.4341,2.9443-.6318,5.8867-2.8276,7.749-1.541,1.3027-3.519,2.0039-5.7329,2.0391,0,0-4.8345.125-4.8481.125Z"/><path class="v" d="M71.5657,242.0405c.1086,0,.2087.0082.292.0152l4.1984.2072c.0061,0,.0122,0,.0183,0,.5001,0,.8475.215,1.1397.5579.2532.2992.4498.7331.5038,1.2005l.7862,5.0677.0274.2337c.0965.5171-.0337.9703-.332,1.2235-.2497.2108-.6747.3152-1.1846.3188l-4.6889.1239c-.0071,0-.0143,0-.0214,0-.4986,0-.8524-.1229-1.1021-.418-.2116-.2479-.3152-.6746-.3772-1.05l-.3772-6.0983c-.0469-.5595.1248-.9632.325-1.1314.243-.2065.5409-.2507.7926-.2507M71.5657,227.5349c-3.7328,0-7.3264,1.2971-10.1279,3.6538h0c-3.7864,3.1838-5.818,8.1079-5.4625,13.2122l.372,6.0155c.0304.4914.0858.981.166,1.4667.519,3.1443,1.7493,5.8715,3.6569,8.106,2.986,3.4995,7.4051,5.5055,12.1344,5.5055.026,0,.0733-.0002.0993-.0003.1017-.0005.2036-.0021.3053-.0049l4.601-.1216c3.8878-.0678,7.4264-1.3576,10.2448-3.7363,4.1007-3.48,6.1039-8.8703,5.3552-14.2378-.0208-.1767-.0448-.3529-.0721-.5286l-.7618-4.9103c-.4402-3.1566-1.7457-6.0895-3.7896-8.5047-2.9857-3.5042-7.2244-5.5465-11.7216-5.6853l-3.8082-.188c-.3155-.0218-.7214-.0419-1.1913-.0419h0Z"/><path class="v" d="M54.2349,278.0585c-1.3408,0-2.6465-.3125-3.8853-.9277l-10.5542-4.916c-1.5156-.667-2.7563-1.5596-3.6899-2.6572-1.1143-1.3125-2.8174-4.1143-1.7817-8.2129.042-.166.0898-.3311.1436-.4932.9854-2.9893,3.355-9.5293,5.4458-15.2998,1.3525-3.7324,2.6299-7.2578,3.1304-8.7188.0146-.0439.0298-.0869.0454-.1299.4424-1.2148,1.2979-2.9443,2.8652-4.2793,1.4746-1.2549,3.3345-1.9453,5.2378-1.9453,1.312,0,2.627.3301,3.8022.9551.0522.0273,8.2061,4.6182,8.2061,4.6182.8877.457,2.1162,1.2012,3.2178,2.5068.9819,1.1592,2.1621,3.1768,2.1479,6.1387-.0005.0752-.002.1504-.0049.2256-.0088.2432-1.9541,25.3018-8.7104,31.0283-1.6245,1.3779-3.5669,2.1074-5.6152,2.1074h-.0005Z"/><path class="v" d="M51.1918,237.7315c.1336,0,.2678.0367.3993.1064l8.1895,4.6126c.4453.2214.7986.4356,1.0934.7845.2957.3488.4418.8251.4391,1.4272-.2506,6.9731-3.4635,23.4778-6.1523,25.7567-.2959.2512-.5983.387-.9252.387-.2238,0-.4592-.0637-.7118-.1975l-10.7509-5.0075c-.5374-.2302-.9323-.494-1.1439-.7437-.5064-.5968-.4108-1.1917-.2736-1.7353,1.606-4.8712,7.2696-20.2002,8.5498-23.9399.1797-.494.4515-.981.7508-1.2359.1722-.1461.3534-.2144.5357-.2144M51.1918,223.2259c-3.617,0-7.1408,1.3001-9.9222,3.6607-2.791,2.3783-4.2551,5.3001-4.9957,7.3356-.0316.0869-.0624.1741-.0923.2616-.4791,1.3996-1.7452,4.8938-3.0858,8.5933-2.1082,5.8183-4.4978,12.4129-5.5165,15.5027-.1078.3268-.2038.6574-.2881.9911-1.8983,7.519,1.66,12.7653,3.278,14.6718,1.6266,1.9194,3.7209,3.4595,6.2225,4.574l10.4405,4.863c2.1967,1.069,4.606,1.6317,7.0034,1.6317,3.7381,0,7.4008-1.3619,10.3135-3.8349,4.0247-3.4111,6.4847-8.751,8.7642-19.0373,1.3811-6.2322,2.3375-12.8443,2.4961-17.2561.0054-.1525.0085-.3051.0092-.4576.0176-4.038-1.3604-7.8987-3.8803-10.8709-2-2.3669-4.2393-3.6444-5.3253-4.2039l-7.9032-4.4515c-.108-.0608-.2167-.1202-.3262-.1783-2.2159-1.1743-4.7027-1.795-7.1917-1.795h0Z"/><path class="v" d="M67.4146,252.6064c-1.7896,0-3.5508-.5693-5.2349-1.6934-.0464-.0303-3.5098-2.457-3.5098-2.457-.1118-.0791-.2212-.1602-.3286-.2451l-.0884-.0693c-.3657-.2842-.9775-.7617-1.605-1.5029-2.1465-2.5332-2.6777-5.9951-1.3828-9.0322.0273-.0635,2.2573-4.9053,2.2573-4.9053.6011-1.3564,1.4478-2.5,2.5176-3.4023,1.4658-1.2451,3.3423-1.9414,5.2627-1.9414,1.5698,0,3.1167.4551,4.5981,1.3516.0474.0283,4.2051,2.6758,4.2051,2.6758,1.0259.6426,1.6572,1.3311,2.0459,1.7959,2.2964,2.7061,2.731,6.7227,1.0649,10.002l-2.1953,4.4775c-.0347.0713-.0708.1416-.1079.2119-.6074,1.1426-1.3242,2.0547-2.1914,2.7881-1.4814,1.2539-3.3672,1.9463-5.3076,1.9463-.0005,0,0,0,0,0Z"/><path class="v" d="M65.3024,234.6107c.2653,0,.5422.1211.8439.3037l4.093,2.6064c.1761.108.2611.2072.3452.3081.5064.5967.4807,1.475.1514,2.0966l-2.2267,4.5418c-.1646.3099-.3223.5294-.471.6552-.1829.1551-.3898.2311-.6243.2311-.3412,0-.7407-.161-1.2093-.4737l-3.3714-2.3639c-.2612-.2054-.4799-.363-.649-.5631-.3798-.448-.4763-.9651-.247-1.5016l2.2001-4.7756c.1726-.4019.3789-.664.5781-.8322.1928-.1638.3865-.2329.5869-.2329M65.3024,220.1051c-3.6393,0-7.1835,1.3086-9.9799,3.6848-1.8677,1.5767-3.3606,3.5765-4.4076,5.92l-2.1524,4.6719c-.0562.1221-.1107.245-.1636.3686-2.3853,5.5809-1.4194,11.9351,2.5209,16.5829,1.1065,1.3091,2.1757,2.1407,2.6895,2.5404l.0558.0435c.2091.1645.4227.3232.6405.4759l3.3714,2.3639c.091.0638.1827.1266.2752.1883,2.8972,1.9336,6.0133,2.914,9.2617,2.914,3.6594,0,7.2133-1.3048,10.0068-3.6741,1.5461-1.307,2.8636-2.9646,3.8982-4.9116.0739-.1391.1456-.2794.2149-.4209l2.1776-4.4417c2.931-5.8265,2.1334-12.975-2.0236-17.9164-1.0886-1.2967-2.3051-2.3599-3.7123-3.2442l-4.0377-2.5712c-.0925-.0589-.1857-.1168-.2795-.1736-2.6311-1.5928-5.4424-2.4005-8.356-2.4005h0Z"/><path class="v" d="M120.5953,289.1786c-4.0249,0-7.5342-2.8457-8.3442-6.7676l-3.5879-17.457c-4.3457,2.2969-8.0913,3.999-9.7031,4.3291-.5903.1221-1.2065.1855-1.8164.1855-2.9912,0-5.6729-1.4883-7.228-3.9961l-5.6812-8.7207c-.0693-.1064-.1357-.2139-.1997-.3242-.1963-.3203-.7705-1.2627-1.0571-2.6406-.6924-3.3584.6777-6.7842,3.4868-8.7393.0703-.0488.1411-.0967.2129-.1426,9.627-6.21,22.3438-16.1387,31.6289-23.3887,1.8403-1.4375,3.5503-2.7725,5.083-3.959.248-.1924.5088-.3682.7798-.5273.4219-.2461,1.4092-.8232,2.8018-1.0986.563-.1182,1.2158-.1846,1.8735-.1846,2.6499,0,5.1001,1.043,6.7393,2.8652l9.0205,9.9141c.1191.1309.2334.2666.3428.4053.561.7158,1.2993,1.9033,1.6279,3.4932.6284,3.0664-.3755,6.291-2.6187,8.4258-.0537.0518-.1079.1016-.1631.1504-2.1406,1.917-4.8682,4.1221-7.96,6.4492.0732.2432.1362.4912.188.7441l5.7832,28.1357c.9575,4.6582-1.9414,9.0635-6.5996,10.0273l-12.8608,2.6436c-.583.1182-1.1675.1777-1.7485.1777Z"/><path class="v" d="M128.8434,222.9999c.533,0,1.0882.1665,1.3553.4705l9.0403,9.9371c.0903.1151.193.294.2328.4852.1177.5755-.0699,1.2802-.5162,1.7051-4.4462,3.9806-12.0204,9.6008-19.9558,14.7642l8.4401-1.7335c.0864-.0179.1715-.0264.2549-.0264.5953,0,1.0953.437,1.2227,1.0552l5.7823,28.133c.1443.7029-.2621,1.3192-.9651,1.4644l-12.8518,2.6419c-.0969.0198-.1933.0294-.288.0294-.5929,0-1.1158-.3759-1.2409-.982l-5.5981-27.2388c-8.8172,5.4113-15.4839,8.3152-16.2515,8.4729-.1213.025-.242.038-.36.038-.4418,0-.8448-.183-1.0894-.6064l-5.7441-8.8164c-.1036-.1788-.193-.2922-.2329-.4851-.1053-.5118.1222-1.0235.5303-1.3086,11.8275-7.6282,27.8505-20.4517,37.2211-27.708.1788-.1044.3577-.2072.5498-.2461.1472-.0306.3046-.0455.4641-.0455M128.8434,208.4944c-1.1367,0-2.2704.1143-3.3702.3395-2.2767.4653-3.9205,1.3252-4.9601,1.9324-.544.3177-1.0667.6706-1.5648,1.0563-1.5375,1.1906-3.2526,2.5298-5.0981,3.9708-9.1787,7.1671-21.7493,16.9826-31.1039,23.016-.15.0967-.2982.1962-.4445.2984-5.1789,3.6175-7.7033,9.9471-6.4314,16.1253.531,2.5703,1.586,4.3382,1.9662,4.963.1033.174.2102.3459.3207.5155l5.657,8.6826c2.8662,4.5349,7.9175,7.3274,13.3302,7.3274,1.0982,0,2.2046-.1133,3.2886-.3367.8361-.1718,1.8504-.496,2.9838-.9315l1.7285,8.4107c1.5049,7.2877,8.0013,12.5674,15.4496,12.5674,1.0677,0,2.1403-.1083,3.1879-.3221l12.8727-2.6462c8.5059-1.7567,13.9971-10.0945,12.2537-18.5892l-5.0316-24.4802c1.7738-1.4126,3.3757-2.755,4.7535-3.9886.1109-.0993.2203-.2003.3281-.3029,4.0355-3.8431,5.8455-9.636,4.7236-15.1179-.4973-2.3894-1.5411-4.6298-3.0286-6.5269-.2185-.2787-.4471-.5493-.6855-.8112l-9.0061-9.8995c-3.0137-3.3404-7.4188-5.2523-12.1193-5.2523h0Z"/><path class="v" d="M192.565,274.2724c-4.2534,0-7.8242-3.1025-8.4556-7.1963-4.7803,3.4385-9.252,4.9365-11.1699,5.0518-.2031.0117-.4072.0176-.6118.0176-2.0591,0-4.0015-.6328-5.6279-1.832l-7.4551-5.3262c-.2104-.1504-.4131-.3125-.6064-.4854-1.7476-1.5557-2.8735-3.8701-3.0122-6.1895-.1685-2.8721,1.0771-5.5967,3.332-7.2969.0327-.0254.0654-.0498.0986-.0732,3.5298-2.5703,6.2852-6.2627,8.2524-9.498,0,0-1.0601.0117-1.0869.0117-.0723,0-.144-.001-.2158-.0029-4.5249-.1357-8.1416-3.6475-8.4131-8.1709-.0078-.1318-.0122-.2637-.0132-.3955l-.0566-10.6885c-.0498-2.1182.7256-4.2305,2.1514-5.8359,1.4902-1.6797,3.6157-2.7178,5.8301-2.8516l.0781-.0049c.1353-.0088.2715-.0146.4072-.0156l12.0542-.1328c-.002-.0234-.0034-.0479-.0049-.0723-.2754-4.6494,3.1831-8.6738,7.7559-9.0938l12.3677-1.3887c.1426-.0166.2861-.0283.4297-.0361l.1309-.0068c.1265-.0059.3184-.0117.4448-.0117,4.3916,0,8.0537,3.3545,8.4639,7.6895l.2974,2.5439s.5801-.0078.6128-.0078c.0723,0,.144.001.2158.0029,4.5225.1348,8.1357,3.5898,8.4053,8.0371,0,0,.019.3662.0205.4854l.1221,10.7822c.0015.124-.0005.249-.0054.373-.1538,3.8291-2.7441,7-6.2759,7.9736l2.5771,22.6533c.0132.1182.0396.4863.0396.4863.2656,4.4736-2.9053,8.335-7.373,9.0137-.0928.0146-.1855.0264-.2783.0371l-12.4053,1.3975c-.1084.0127-.4556.0381-.4556.0381-.1616.0107-.4009.0186-.5635.0186h-.001Z"/><path class="v" d="M199.1684,210.0005c.6273,0,1.209.5355,1.2467,1.1653l1.0713,9.1562,7.0563-.0956c.7206.0212,1.3378.5082,1.3811,1.2253l.008.1293.1222,10.7818c-.0266.657-.5126,1.2731-1.2289,1.3174l-.1301.0071-5.7495.0832,3.4503,30.3304.0079.1293c.0425.7171-.5126,1.2731-1.2253,1.3811l-12.4055,1.3972-.1302.0088c-.0261.0015-.0519.0023-.0776.0023-.6837,0-1.2624-.5359-1.2999-1.1639l-1.8105-16.0425c-5.3582,10.9801-15.5804,14.9925-16.9492,15.074-.0598.0037-.1196.0056-.1796.0056-.4619,0-.9255-.1148-1.3503-.4377l-7.514-5.3688c-.2762-.2462-.5684-.7508-.5959-1.2076-.023-.3913.0841-.7897.4595-1.073,7.143-5.2006,11.4848-13.5052,13.7451-18.3481.2904-.6055.8571-.9668,1.5087-1.0057.0318-.0019.0636-.0029.0955-.0029.23,0,.4623.0506.6987.1516l9.1298,3.9646-.8473-7.5999-21.4335.2373c-.7206-.0213-1.3422-.5738-1.3891-1.3546l-.0576-10.7853c-.0389-.6516.5126-1.2731,1.1642-1.3121l.1301-.0088,20.0621-.2196-.8517-7.6654c-.0425-.7171.4391-1.3989,1.2209-1.4467l12.4711-1.4006.131-.007c.0219-.0013.0436-.002.0654-.002M199.1684,195.4949c-.285,0-.5711.0078-.8573.0236l-.1179.0063c-.2807.0151-.5609.0383-.8402.0697l-12.301,1.3816c-5.7625.5583-10.558,4.2052-12.8427,9.192l-6.2985.0689c-.2742.003-.5483.0138-.8219.0323l-.1061.0072c-8.4202.5518-14.8945,7.6701-14.712,16.0469l.0566,10.602c.0014.2643.01.5285.0259.7924.2591,4.3132,2.1769,8.1246,5.1258,10.8252-.23.1888-.4606.3674-.6919.5358-.0672.0489-.134.0984-.2003.1485-4.195,3.1659-6.5135,8.2142-6.2019,13.5042.2565,4.2694,2.2336,8.3394,5.4252,11.1839.3883.3461.795.671,1.2182.9734l7.4172,5.2996c2.8712,2.101,6.2804,3.2098,9.8799,3.2098.3575,0,.7147-.011,1.0714-.033,2.2029-.1311,5.0314-.9091,8.1124-2.3392,2.8599,2.7875,6.7708,4.4991,11.0555,4.4991.311,0,.6225-.0092.9368-.0278.0402-.0024.0805-.0049.1208-.0077l.1302-.0088c.2148-.0146.4293-.0339.6434-.058l12.4055-1.3972c.1838-.0207.3671-.0449.5499-.0726,8.2012-1.2428,14.0187-8.3711,13.5322-16.5811l-.0095-.157c-.0154-.2518-.0374-.5031-.0659-.7537l-2.0314-17.8575c3.3829-2.7815,5.5806-6.9478,5.7708-11.6554.0101-.2499.0137-.5.0109-.7501l-.1223-10.7818c-.0027-.2423-.0116-.4846-.0264-.7265l-.0079-.1293c-.3843-6.3554-4.4517-11.6182-10.1233-13.7817-1.9366-6.5479-8.0085-11.2843-15.1104-11.2843h0Z"/><path class="v" d="M277.5557,260.7714c-.4316,0-.8643-.0322-1.2861-.0957l-43.7598-6.4805c-2.3091-.3428-4.4478-1.6426-5.8711-3.5654-1.3901-1.8779-1.9692-4.1543-1.6304-6.4121l1.7568-11.7432c.6299-4.209,4.3892-7.3818,8.7441-7.3818.4238,0,.8496.0312,1.2661.0938l43.8262,6.6221c2.2646.3369,4.3789,1.6201,5.7842,3.5176,1.3936,1.8828,1.9727,4.1719,1.6318,6.4463l-1.7471,11.6787c-.625,4.1738-4.3711,7.3203-8.7139,7.3203h-.001Z"/><path class="v" d="M235.5097,232.3455c.0646,0,.1284.0045.1902.0138l43.8178,6.6207c.71.1062,1.4529.8765,1.3271,1.7158l-1.7477,11.6831c-.1047.7007-.8706,1.1397-1.5412,1.1397-.0717,0-.1423-.005-.2109-.0153l-43.7726-6.4825c-.7101-.1063-1.5175-.8871-1.3918-1.7264l1.7574-11.7468c.1059-.708.8948-1.202,1.5717-1.202M235.5097,217.8399c-7.9183,0-14.7615,5.8305-15.9177,13.5623l-1.7573,11.7459c-.6901,4.6081.7032,9.2924,3.8233,12.8495,2.5439,2.9002,6.0126,4.807,9.767,5.369l43.795,6.4859c.7562.113,1.5486.1718,2.3359.1718,7.9067,0,14.7368-5.804,15.8874-13.5006l1.7475-11.6819c.6694-4.4683-.6239-9.0476-3.5488-12.5605-2.5479-3.0601-6.0914-5.0656-9.9775-5.6472l-43.7975-6.6176c-.7913-.1183-1.5768-.1766-2.3574-.1766h0Z"/><path class="v" d="M313.9004,285.6181c-5.4951-.001-12.2998-.9795-18.6699-2.6865-1.6064-.4316-3.2012-.8604-4.7686-1.4404-5.3193-1.8779-8.2217-7.3643-6.7588-12.8125.2871-1.0801.7578-2.1562,1.3604-3.1045l22.6895-37.6064c1.7256-2.7891,4.5146-4.4121,7.502-4.4121.708,0,1.4141.0918,2.0967.2744l.1729.0459c.4414.1162.8701.2744,1.2822.4717l12.1582,5.8291c3.918,1.9297,5.874,5.9834,4.8271,9.8916l-.0322.1143c-.2939,1.0371-.748,1.875-1.25,2.542l-11.2266,17.2598c2.9004,1.6299,4.582,4.6953,4.3525,8.1963-.042.5938-.0732,1.374-.1104,2.2559-.0771,1.835-.1729,4.1074-.373,5.9902-.082.9717-.2822,1.708-.3818,2.0742-.5615,2.1016-2.3311,5.8271-7.7773,6.7861-.1113.0195-.2236.0371-.3359.0518-1.4463.1846-3.0459.2793-4.7549.2793h-.002Z"/><path class="v" d="M315.2546,230.8083c.076,0,.1523.0096.228.0299l.1885.0496,12.1577,5.8291c.5967.294,1.1094.9048.9571,1.4732-.0168.062-.0505.1877-.131.2338l-16.0966,24.7473c-.1133.1718-.147.2975-.1815.425-.1346.5029-.139.772,2.1939,1.3988,1.5759.4214,3.4387.7862,4.4471,1.0571l.2523.0673c.6932.1859,1.1934.5896,1.1288,1.5865-.1239,1.7247-.1877,5.491-.4692,8.0514-.0212.3329-.0885.5861-.1567.8375-.2869,1.0713-.973,1.3617-2.0372,1.5494-1.1692.1498-2.4597.2205-3.8354.2205-5.0479,0-11.2422-.9517-16.7914-2.4391-1.4502-.3896-2.9005-.7773-4.1913-1.259-1.8574-.6339-2.6667-2.4046-2.2098-4.1063.101-.3789.2825-.8039.51-1.1474l22.7455-37.6983c.3099-.5018.7974-.9064,1.2913-.9064M315.2546,216.3027c-5.5232,0-10.6193,2.9116-13.632,7.7885-.0266.0431-.053.0864-.0793.1299l-22.655,37.5482c-.9683,1.5444-1.7248,3.2837-2.1972,5.0566-2.4472,9.1156,2.4045,18.318,11.3058,21.4869,1.8647.686,3.6819,1.1741,5.2901,1.6061l.0583.0157c6.9635,1.8666,14.4526,2.9359,20.5549,2.9359,2.0172,0,3.9278-.1138,5.6789-.3381.226-.029.4514-.0633.6758-.1028,6.7656-1.1931,11.8235-5.7099,13.53-12.0825.2083-.7679.4667-1.8497.5885-3.2377.2184-2.0894.3174-4.447.3976-6.3548.0334-.7949.068-1.6169.0962-2.0094.0024-.0336.0047-.0673.0069-.1008.2265-3.494-.6442-6.7975-2.3572-9.5544l7.9135-12.1664c1.063-1.4592,1.8632-3.1233,2.3541-4.9321,1.9361-7.2257-1.6632-14.8967-8.5458-18.287-.0461-.0227-.0923-.0452-.1387-.0674l-12.1577-5.8291c-.8278-.3969-1.6913-.7143-2.5791-.948l-.1628-.0428c-1.2866-.3414-2.6139-.5145-3.9459-.5145h0Z"/><path class="v" d="M327.8047,291.0956c-.9092,0-1.7988-.1162-2.6445-.3438-4.8398-1.2998-5.9268-5.6934-6.4492-7.8057-.585-2.3672-1.3701-6.3486-3.1553-15.5459-.3486-1.7168-.3203-3.4062.0977-4.959.9248-3.4414,3.7852-5.8838,7.2871-6.2217.084-.0088.167-.0146.25-.0205l10.0361-.6211c.3623-.0381.7285-.0576,1.0918-.0576.9336,0,1.8848.1279,2.8281.3809,2.5576.6846,4.6045,2.25,5.9199,4.5264.0498.084,8.2969,15.3379,6.2734,22.8799-.9824,3.6699-3.9736,6.2021-7.8047,6.6035-.0391.0049-12.252,1.0859-12.252,1.0859-.498.0654-.9941.0986-1.4785.0986h0Z"/><path class="v" d="M334.3193,262.7733c.329,0,.6443.0517.9509.1342.6312.1682,1.1474.5099,1.5166,1.1492,2.232,3.7751,6.3772,14.2807,5.5485,17.3706-.1859.6941-.6534,1.1757-1.5574,1.2714l-12.3223,1.0908c-.2411.0377-.4568.0531-.6489.0531-.3135,0-.5643-.0411-.7597-.0939-.9456-.2532-1.0509-.6197-4.371-17.73-.1169-.5719-.1541-1.1899-.0186-1.6946.1354-.5046.4258-.8322.981-.8853l10.24-.6339c.15-.0216.2968-.0315.4409-.0315M334.3193,248.2677c-.5591,0-1.1216.027-1.6802.0805l-9.8969.6126c-.162.01-.3239.0228-.4854.0382-6.55.6267-11.8919,5.1664-13.6092,11.5652-.7052,2.6273-.7729,5.4091-.2014,8.2693,1.8028,9.2908,2.6002,13.3301,3.2247,15.8546.6525,2.6381,2.6383,10.6663,11.6241,13.0724,1.4382.3877,2.9641.5875,4.5118.5875.7409,0,1.4936-.0463,2.2451-.1377l12.0051-1.0627c.0825-.0073.1649-.0153.2473-.024,6.7793-.7173,12.2914-5.4053,14.0427-11.9431,1.207-4.5002.6279-9.5695-1.9373-16.946-1.4896-4.2838-3.4471-8.6934-5.1144-11.523-2.2731-3.8818-5.9235-6.6571-10.2903-7.8206-1.5253-.4105-3.1133-.6232-4.6856-.6232h0Z"/><path class="v" d="M436.0909,156.5746c-.9961,0-1.998-.1167-2.9775-.3472l-126.251-29.6885c-3.5322-.8306-6.5635-3.1299-8.3145-6.3081-1.7656-3.2046-2.0908-7.0332-.8926-10.5039,6.0566-17.5347,19.165-32.1099,35.9629-39.9888,5.7305-2.6885,11.8672-4.5806,18.1377-5.6152-1.0098-.562-1.9932-1.1841-2.9453-1.8652-13.6025-9.7319-16.751-28.7168-7.0186-42.3203,5.6826-7.9429,14.9111-12.6846,24.6846-12.6846,6.3564,0,12.4551,1.959,17.6357,5.665,1.5107,1.0811,2.915,2.2979,4.1953,3.6299l2.0586-2.1899c2.4629-2.6191,5.7881-4.0615,9.3643-4.0615,5.7383,0,10.7031,3.6846,12.3555,9.1685l3.0742,10.2026c12.417,1.7314,22.4385,11.291,24.5459,23.9971,1.6387,9.8765-2.0439,19.8647-9.3584,26.4038l18.0488,59.9033c1.1885,3.9404.4648,8.0923-1.9854,11.3896-2.4258,3.2646-6.2832,5.2134-10.3193,5.2134h-.001ZM382.3682,102.308l.3223-.645c-.3105.123-.626.2344-.9473.3335l.625.3115Z"/><path class="v" d="M366.4771,14.5056c4.8342,0,9.4731,1.4908,13.415,4.3113,3.3458,2.3937,5.9137,5.5726,7.5665,9.2225l8.1922-8.7138c1.1396-1.2122,2.6188-1.7762,4.0799-1.7762,2.344,0,4.6409,1.4519,5.4109,4.0078l4.5618,15.1395c.4636-.0297.9276-.0576,1.3896-.0576h.0003c10.683,0,19.7072,7.6591,21.4575,18.2119,1.525,9.1945-2.9929,18.0002-10.6252,22.4077l19.527,64.8052c1.1178,3.7101-1.7303,7.2581-5.3618,7.2581-.4295,0-.8703-.0497-1.3165-.1546l-126.2518-29.6884c-3.273-.7697-5.1099-4.2061-4.0121-7.3842,5.4233-15.6998,16.9943-28.664,32.1879-35.7905,8.3238-3.905,17.2956-5.853,26.2643-5.853,7.4038,0,14.8063,1.3286,21.8334,3.9806,3.1459,1.1871,4.6144,4.7967,3.1138,7.8058l-4.9814,9.9892c-.9791,1.9635-2.9585,3.0966-5.0469,3.0966-.6414,0-1.2936-.1071-1.9297-.3298-4.2527-1.4891-8.6071-2.1959-12.9032-2.1959-9.6863,0-19.0674,3.5966-26.2545,9.9309-2.5817,2.2753-2.4199,6.3605.2525,8.5283,1.0332.8382,2.2845,1.254,3.5352,1.254,1.3287,0,2.6566-.4697,3.7197-1.4013,5.1105-4.4787,11.7947-7.0663,18.7305-7.066,4.1767.0002,8.4454.9388,12.5146,2.9681l5.0388,2.5116c.8066.4021,1.6631.5925,2.507.5925,2.0669,0,4.0568-1.143,5.0417-3.1184l14.2659-28.6105c-5.8561-2.5315-10.3984-7.5652-12.2249-13.9178-5.7382-2.2987-11.6995-3.8349-17.7421-4.6172-1.9351.5213-3.9409.8185-5.9864.8185-4.8346,0-9.4735-1.4908-13.4156-4.3111-10.3505-7.4056-12.7464-21.8513-5.3408-32.2019,4.324-6.0436,11.3471-9.6519,18.7865-9.6521h.0001M366.4771,0s-.0002,0-.0004,0c-12.1091.0003-23.5421,5.8759-30.5833,15.7171-9.8788,13.8073-9.0471,32.0894.8415,44.8792-2.1053.7674-4.1738,1.6265-6.1973,2.5758-18.5605,8.7056-33.0447,24.8112-39.7377,44.1866-1.8676,5.4064-1.3591,11.3737,1.3949,16.3719,2.7396,4.9722,7.4806,8.5692,13.0072,9.8688l126.252,29.6885c1.5235.3582,3.0834.5397,4.6369.5397,6.3195,0,12.3536-3.043,16.1414-8.1401,3.8321-5.1569,4.9654-11.6477,3.1093-17.8082l-16.8193-55.8187c6.8781-8.0171,10.1186-18.8517,8.3387-29.5831-2.3633-14.2483-12.6886-25.3303-25.9972-29.0211l-1.8333-6.0842c-2.5824-8.57-10.3381-14.3281-19.2992-14.3285-4.2042-.0002-8.3045,1.3424-11.6958,3.7656-6.3539-4.456-13.8001-6.8094-21.5585-6.8094h0Z"/><path class="v" d="M243.2579,207.7011c-12.8848,0-25.3047-4.8574-34.5669-13.4248-7.2627-.8672-12.9111-7.0645-12.9111-14.5566,0-1.2891.1748-2.5703.5151-3.8125-1.9961-5.2871-3.0059-10.8281-3.0059-16.5137,0-26.6362,22.416-48.3066,49.9688-48.3066,10.3037,0,20.2061,3.0186,28.6367,8.7285,2.1016,1.4233,3.3057,3.8413,3.1758,6.376-.0088.1724-.0488.7603-.0488.7603.001,6.5083,4.6514,12.4014,11.3105,14.2856,2.3984.6792,4.2812,2.542,4.9834,4.9336,1.0908,3.7114,1.7197,7.5229,1.873,11.3555,2.1152,2.585,3.3086,5.8457,3.3086,9.2764,0,5.6162-3.1768,10.583-7.9668,13.0342-8.1445,16.7949-25.9199,27.8643-45.2725,27.8643Z"/><path class="v" d="M243.2579,118.3396c9.1489,0,17.6188,2.7734,24.5692,7.4805-.0182.3624-.0571.7196-.0571,1.0864,0,10.0909,7.0026,18.5976,16.588,21.3099,1.0447,3.5551,1.6159,7.301,1.6159,11.1772,0,.4177-.02.8307-.0328,1.2454,1.9901,1.3283,3.3032,3.5911,3.3032,6.1632,0,3.6419-2.6328,6.6545-6.0958,7.2762-6.149,15.4184-21.6848,26.3694-39.8906,26.3694-12.5284,0-23.7967-5.1839-31.6102-13.4414-.3948.0651-.7932.1216-1.2064.1216-4.0917,0-7.4086-3.3169-7.4086-7.4086,0-1.4126.4167-2.7195,1.1028-3.8428-2.3051-5.0463-3.5934-10.6187-3.5934-16.4831,0-22.6735,19.1245-41.0541,42.7159-41.0541M243.2579,103.834c-31.5521,0-57.2215,24.924-57.2215,55.5597,0,5.8369.9214,11.541,2.7449,17.0241-.1688,1.0902-.2543,2.1936-.2543,3.3018,0,10.3459,7.2075,19.0405,16.8646,21.3271,10.3984,8.8973,23.8977,13.9069,37.8663,13.9069,11.7108,0,22.9727-3.4151,32.5682-9.8762,7.73-5.2049,13.9453-12.0737,18.2218-20.0841,5.9127-3.9628,9.7018-10.69,9.7018-18.1909,0-4.2561-1.2273-8.3363-3.4507-11.8085-.3011-3.6689-.9783-7.3087-2.024-10.8672-1.4058-4.7838-5.17-8.5103-9.9676-9.8678-3.4735-.9829-5.9224-3.8964-6.0283-7.1337.0132-.1915.0255-.3832.0352-.5756.2551-5.0654-2.1539-9.8961-6.3533-12.7401-9.6364-6.5261-20.9449-9.9756-32.7031-9.9756h0Z"/></g><g id="c"><path id="d" class="q" d="M417.8974,280.7544c-19.3379-22.4596-13.7132-46.9431,1.3254-59.8905,14.1479-12.1824,37.592-14.9678,57.0149,7.591,21.1272,24.5366.1983,44.45-3.0669,47.2619-4.5507,3.9186-9.9292,5.2767-16.9341,1.1421-5.5866-3.2864-12.9784-9.6716-17.6061-14.6455-1.3634-1.583-1.097-2.6738-.2497-4.0921,2.2426-3.9982,7.0545-11.4157,7.4502-11.7557,1.089-.9367,2.2647-.5719,3.6689.4586,5.6167,4.1222,6.4117,4.6446,7.7964,3.4529.8907-.7667,2.4383-5.3741-1.1403-9.5282-4.0886-4.749-11.6512-5.1297-17.7858.1523-7.0244,6.0487-10.51,18.0081.139,30.3747.5958.6941,1.2776,1.4856,1.9726,2.093l.1709.1965c1.1926,1.3865,1.7503,3.8336.0682,5.282-.9898.8517-9.9319,4.0726-14.5738,5.4856-2.2647.5702-4.757.4781-7.2271-2.3922l-1.0226-1.1864Z"/><path id="e" class="q" d="M330.8718,213.1915l-.2399-.1027c-1.1997-.5153-1.6981-2.0062-1.2528-3.3767l9.6406-25.8381c4.5888-12.379,4.2267-18.5003-3.0775-22.3357l-16.4906,44.4907c-.6162,1.4414-2.039,2.1107-3.4104,1.6645l-22.9058-8.5277-.2408-.1027c-1.1997-.5135-1.6972-2.0044-1.2528-3.3767l23.7168-63.694.1027-.2408c.5649-1.3192,1.9363-1.8681,3.1873-1.475l7.3555,2.7233c6.9943.579,13.4069,2.1886,19.1679,4.6534,5.4006,2.3125,10.0824,5.3103,13.9921,9.1156,8.9146.4073,16.8004,2.2205,23.522,5.0979,21.1236,9.043,30.9032,28.9917,22.8722,51.4018-2.8588,8.0071-4.0567,14.4525-.3161,21.3086.463.9084,1.3891,2.7251.8243,4.0443-.2568.6003-.8057,1.2182-1.7822,1.5104-.1027.239-14.4658,5.5937-14.4658,5.5937-1.8344.6357-3.12.6534-4.3205.1399-1.6804-.7207-18.9306-12.5065-10.2497-36.7669,4.9491-13.2201,4.4834-19.0988-1.946-22.9873l-16.1816,43.7718c-.6171,1.4396-2.0399,2.1089-3.4113,1.6645l-22.8377-8.356Z"/><g id="f"><path class="o" d="M284.358,148.2165c5.8977,13.9153,1.7673,31.6276-9.0067,42.4918-14.8502,15.6913-40.7566,18.1814-58.7315,6.2481-36.7598-24.6605-20.5937-79.2083,23.2026-80.6777,10.2675-.2366,20.4635,3.1964,28.0047,9.5414-16.6588-9.2464-38.6626-6.7251-51.829,6.702-22.97,23.4111-7.8978,60.3072,24.0157,63.6101,27.0142,2.8206,49.5899-20.7364,44.3442-47.9156h0Z"/><path class="s" d="M285.9738,159.3937c0-3.8763-.5712-7.6222-1.6159-11.1772-9.5854-2.7124-16.588-11.2191-16.588-21.31,0-.3667.0388-.724.0571-1.0865-6.9505-4.707-15.4203-7.4805-24.5692-7.4805-23.5914,0-42.7159,18.3806-42.7159,41.0542s19.1245,41.0542,42.7159,41.0542,42.7159-18.3806,42.7159-41.0542Z"/><circle class="o" cx="248.8643" cy="128.7651" r="7.4085"/><circle class="o" cx="210.4412" cy="179.7196" r="7.4085"/><circle class="o" cx="251.4005" cy="187.1281" r="7.4085"/><circle class="o" cx="222.1668" cy="145.8806" r="7.4085"/><circle class="o" cx="243.992" cy="159.7274" r="7.4085"/><circle class="o" cx="281.8356" cy="166.8023" r="7.4085"/></g><path id="g" class="q" d="M166.9232,127.1777c-10.6676.8854-19.9656-6.989-20.8394-17.5264-.8845-10.6667,6.989-19.9665,17.6566-20.85,10.5375-.8747,19.8354,6.9996,20.7208,17.6663.8738,10.5375-7.0005,19.8354-17.5379,20.7102ZM164.7266,200.1892l-.2594.0212c-1.4316.1186-2.5693-.9668-2.8181-2.3869l-8.5073-63.0849c-.1293-1.56.8145-2.8172,2.3648-3.0775l25.9107-3.4582.2594-.023c1.3015-.1062,2.5693.9668,2.6773,2.2683l8.518,63.2141.0212.2603c.108,1.3015-.9659,2.5693-2.2559,2.8066l-25.9107,3.46Z"/><path id="h" class="q" d="M38.5294,114.5916l-.0363-.2585c-.2205-1.5511.8889-3.0279,2.5693-3.2652l14.8659-3.0332c6.9456-4.0177,16.2542-7.1855,25.9488-8.5614,30.6349-4.3471,45.9276,10.4932,48.257,26.9094,1.2289,8.6605-1.8982,16.356-6.7225,22.3162,4.0407,2.4595,7.4175,4.8818,10.0169,9.259,2.9128,4.7295,4.6251,9.3653,5.2307,13.6309,3.1182,21.9744-21.4344,37.5903-47.2866,41.2592-7.2386,1.027-31.685,2.5179-34.9997-6.9004l-17.8434-91.3559ZM78.6368,149.1185c6.2975-1.158,21.7168-4.0053,20.1391-15.1218-.8437-5.946-6.286-10.8438-17.4025-9.2661-2.456.3488-4.8747.9562-7.128,1.8026l4.3913,22.5853ZM86.3916,188.8956c1.846.0018,3.5449-.1062,5.2253-.3453,9.5653-1.3581,15.9585-6.4843,15.0412-12.9474-.9535-6.7216-7.0076-9.4237-17.3485-7.9558-2.456.3488-4.7641.8074-6.7951,1.3599l3.877,19.8885Z"/></g><g id="i"><path class="p" d="M14.5081,224.083c-.0319-.7437.2399-1.2306.6383-1.5688.4985-.4214,1.1501-.4604,1.6521-.3736,5.1501,1.027,21.2883,2.4949,24.6013,2.7676.6445.0531.9969.2674,1.2926.6162.1691.2001.3302.4905.3497.8163l1.2705,9.8788c.1239.7525.0204,1.4378-.4772,1.861-1.992,1.6875-25.839,2.1319-28.4986-1.0058-.4223-.4976-.5533-1.1563-.5843-1.9l-.2444-11.0917ZM42.7729,265.6007c-.5374-.2302-.9323-.494-1.1439-.7437-.5064-.5967-.4108-1.1917-.2736-1.7353,1.606-4.8712,7.2696-20.2002,8.5498-23.9399.1797-.494.4515-.981.7508-1.236.2984-.2532.6242-.2727.9349-.108l8.1895,4.6127c.4453.2213.7986.4356,1.0934.7844.2957.3488.4418.8251.4391,1.4272-.2506,6.973-3.4635,23.4778-6.1523,25.7567-.4985.4232-1.0155.5188-1.637.1895l-10.7508-5.0076ZM62.8332,242.5161c-.2612-.2054-.4799-.363-.649-.5631-.3798-.448-.4763-.965-.247-1.5016l2.2001-4.7756c.1726-.4019.3789-.664.5781-.8322.448-.3807.9013-.2497,1.4307.0708l4.093,2.6065c.1762.108.2612.2072.3453.3081.5064.5967.4807,1.475.1514,2.0965l-2.2267,4.5419c-.1647.3099-.3223.5294-.471.6552-.4489.3807-1.0429.2851-1.8336-.2426l-3.3714-2.3639ZM72.326,250.9889c-.51.0035-.8703-.1186-1.1235-.4179-.2116-.2479-.3152-.6746-.3772-1.05l-.3772-6.0983c-.0469-.5595.1248-.9633.3249-1.1315.3479-.2957.8083-.2585,1.0846-.2355l4.1983.2072c.51-.0053.8623.2107,1.158.5578.2532.2992.4498.7331.5038,1.2005l.7862,5.0678.0274.2337c.0965.517-.0336.9703-.332,1.2236-.2497.2107-.6746.3152-1.1846.3187l-4.6888.1239Z"/><path class="p" d="M120.8831,281.8965c-.7039.1434-1.3838-.2497-1.529-.9526l-5.5981-27.2387c-8.8172,5.4113-15.4839,8.3152-16.2515,8.4728-.5755.1186-1.1394-.0319-1.4493-.5684l-5.7442-8.8163c-.1036-.1788-.193-.2922-.2328-.4852-.1054-.5117.1222-1.0235.5303-1.3086,11.8274-7.6282,27.8505-20.4516,37.2211-27.708.1788-.1045.3577-.2072.5498-.2461.6392-.1328,1.4723.0301,1.8194.425l9.0403,9.9372c.0903.1151.193.2939.2328.4852.1178.5755-.0699,1.2802-.5162,1.7052-4.4462,3.9805-12.0204,9.6008-19.9558,14.7641l8.4401-1.7335c.703-.1452,1.3325.324,1.4777,1.0288l5.7822,28.1329c.1443.703-.2621,1.3192-.965,1.4644l-12.8518,2.6419Z"/><path class="p" d="M192.7728,267.0085l-.1301.0089c-.7171.0425-1.3387-.51-1.3776-1.1616l-1.8105-16.0426c-5.3581,10.9801-15.5804,14.9925-16.9492,15.074-.5206.0319-1.05-.0673-1.5299-.4321l-7.514-5.3688c-.2762-.2461-.5684-.7508-.5958-1.2076-.023-.3913.0841-.7897.4595-1.073,7.143-5.2006,11.4848-13.5052,13.7451-18.348.2904-.6056.857-.9668,1.5086-1.0058.2612-.0159.525.0336.7942.1487l9.1297,3.9646-.8473-7.5999-21.4335.2373c-.7207-.0212-1.3422-.5737-1.3891-1.3546l-.0575-10.7854c-.039-.6516.5126-1.2731,1.1642-1.3121l.1301-.0089,20.0621-.2196-.8517-7.6654c-.0425-.7171.4391-1.3989,1.2209-1.4467l12.4711-1.4006.131-.0071c.6516-.039,1.2731.5117,1.3121,1.1634l1.0713,9.1563,7.0563-.0956c.7207.0212,1.3378.5082,1.3811,1.2253l.008.1293.1222,10.7818c-.0266.6569-.5126,1.2731-1.2289,1.3174l-.1301.0071-5.7495.0832,3.4502,30.3304.008.1293c.0425.7171-.5126,1.2731-1.2253,1.3811l-12.4056,1.3971Z"/><path class="p" d="M233.5725,247.0207c-.7101-.1062-1.5175-.8871-1.3918-1.7264l1.7574-11.7468c.116-.7756,1.0518-1.2944,1.7619-1.1881l43.8178,6.6207c.7101.1062,1.4529.8765,1.3271,1.7158l-1.7477,11.6831c-.116.7756-1.0421,1.2306-1.7521,1.1244l-43.7727-6.4825Z"/><path class="p" d="M319.2701,266.1196c.6932.1859,1.1935.5896,1.1288,1.5866-.1239,1.7247-.1877,5.491-.4692,8.0514-.0212.3329-.0885.5861-.1567.8375-.2869,1.0713-.973,1.3617-2.0372,1.5494-5.4591.6994-13.5654-.3258-20.6269-2.2187-1.4502-.3896-2.9004-.7773-4.1913-1.259-1.8575-.6339-2.6667-2.4046-2.2098-4.1063.1009-.3789.2824-.8039.51-1.1474l22.7456-37.6983c.3577-.579.9518-1.0288,1.5193-.8765l.1886.0496,12.1577,5.8292c.5967.2939,1.1093.9048.9571,1.4732-.0168.062-.0505.1877-.131.2337l-16.0966,24.7474c-.1133.1718-.147.2975-.1815.425-.1346.5029-.139.772,2.1939,1.3989,1.5759.4214,3.4387.7862,4.4471,1.0571l.2523.0673ZM328.4556,283.7894c-.6348.0992-1.0934.0443-1.4086-.0407-.9456-.2532-1.0509-.6197-4.371-17.7301-.1169-.5719-.1541-1.1899-.0186-1.6946s.4259-.8322.981-.8854l10.24-.6339c.4923-.0708.9509-.0159,1.3918.1027.6313.1682,1.1474.51,1.5166,1.1492,2.232,3.7751,6.3772,14.2807,5.5485,17.3706-.1859.6941-.6534,1.1757-1.5573,1.2714l-12.3223,1.0908Z"/></g><g id="j"><path id="k" class="q" d="M395.6509,19.3255l-28.9613,30.8056c-3.1757,3.378-1.1414,8.9954,3.4729,9.4471,8.7441.8559,17.3624,3.2846,25.4138,7.2994l5.0245,2.5066c2.7815,1.3876,3.9117,4.7671,2.5247,7.5488l-14.9911,30.0646c-1.3871,2.7819-4.7666,3.9127-7.5487,2.526l-5.0388-2.5117c-10.8265-5.3992-23.0571-3.0778-31.2452,4.0979-2.0636,1.8085-5.1239,1.876-7.2548.1473h0c-2.6724-2.1679-2.8342-6.2531-.2526-8.5284,10.3747-9.1437,25.3166-12.5817,39.1578-7.735,2.7069.9479,5.6967-.2001,6.9767-2.7668l4.9814-9.9892c1.5006-3.0091.0321-6.6186-3.1138-7.8059-15.5394-5.8643-32.9025-5.256-48.0978,1.8726-15.1936,7.1264-26.7645,20.0906-32.1878,35.7904-1.0978,3.1781.739,6.6145,4.0121,7.3842l126.2517,29.6885c4.2182.9919,7.9284-2.9545,6.6782-7.1035l-36.3109-120.5067c-1.2501-4.1489-6.5228-5.3887-9.4908-2.2316Z"/><g id="l"><path class="v" d="M411.0538,77.4677c-9.3486,0-17.2441-6.7026-18.7764-15.9375-.833-5.02.3398-10.064,3.3008-14.2031,2.9609-4.1382,7.3564-6.8765,12.377-7.709,1.0371-.1719,2.0928-.2593,3.1367-.2593,9.3486,0,17.2441,6.7026,18.7764,15.9375,1.7178,10.3633-5.3145,20.1929-15.6777,21.9121-1.0371.1719-2.0928.2593-3.1367.2593Z"/><path class="q" d="M411.0923,42.0787c7.8451-.0005,14.7664,5.6682,16.0922,13.6623,1.4759,8.8984-4.5413,17.3084-13.4396,18.7842-.9043.15-1.8046.2227-2.692.2227-7.8452,0-14.7664-5.6682-16.0922-13.6623-1.4759-8.8984,4.5413-17.3084,13.4396-18.7842.9043-.15,1.8046-.2226,2.692-.2226M411.0933,36.6391h-.0013c-1.1931,0-2.3982.0996-3.5817.296-5.7371.9515-10.7602,4.0802-14.144,8.8098-3.3839,4.7296-4.7234,10.4938-3.7719,16.2308,1.7502,10.5527,10.7748,18.2119,21.4585,18.2119,1.1929,0,2.3981-.0995,3.582-.2959,5.7371-.9515,10.7602-4.0802,14.144-8.8098s4.7234-10.4938,3.7719-16.2308c-1.7502-10.5526-10.7744-18.2118-21.4575-18.2118h0Z"/><circle class="p" cx="403.9074" cy="59.6016" r="9.0691"/></g><g id="m"><path class="v" d="M366.4463,57.9506c-4.2637,0-8.3555-1.3149-11.833-3.8032-9.1299-6.5327-11.2432-19.2764-4.7109-28.4072,3.8145-5.3315,10.0098-8.5146,16.5742-8.5146,4.2637,0,8.3545,1.3149,11.833,3.8032,4.4229,3.1646,7.3486,7.8623,8.2393,13.228.8896,5.3652-.3633,10.7563-3.5283,15.1792-3.8145,5.3315-10.0098,8.5146-16.5742,8.5146Z"/><path class="q" d="M366.4765,19.9452c3.5534,0,7.1401,1.0702,10.2504,3.2955,7.9239,5.6693,9.7515,16.6888,4.0822,24.6127-3.444,4.8136-8.8629,7.3777-14.3624,7.3777-3.5534,0-7.1401-1.0702-10.2504-3.2955-7.9238-5.6693-9.7515-16.6888-4.0822-24.6127,3.444-4.8136,8.8629-7.3775,14.3623-7.3777M366.477,14.5056h-.0001c-7.4395.0002-14.4625,3.6085-18.7865,9.6521-7.4056,10.3506-5.0097,24.7962,5.3408,32.2018,3.942,2.8204,8.5811,4.3112,13.4156,4.3112,7.4391,0,14.462-3.6082,18.7863-9.6521,7.4055-10.3506,5.0096-24.7963-5.3409-32.2018-3.942-2.8204-8.5808-4.3112-13.4151-4.3112h0Z"/><circle class="p" cx="361.8966" cy="43.9685" r="9.7962"/></g></g><g id="n"><path class="t" d="M112.2897,102.7409c.6785.3176,1.3357.6525,1.9748,1.0019,1.9956-1.9891,4.5114-5.0355,4.5534-5.2118,2.919-4.5761-.3441-8.368-.3441-8.368-.017-.0009-.0343-.0008-.0516-.0004-.1919-.2637-.4222-.4705-.685-.5991-1.0597-.5183-2.2437.4283-2.6448,2.1142-.2241.9416-.1562,1.9145.1318,2.6804-1.2386,2.6781-2.3711,6.0615-2.9345,8.3828Z"/><path class="t" d="M63.7093,104.3047c.6414-.2573,1.2914-.5063,1.9521-.7495-.528-2.414-1.7761-6.2265-3.1931-9.288.3737-.6996.4959-1.6508.2714-2.6323-.4021-1.7572-1.7625-2.945-3.0386-2.653-.3165.0724-.5981.2292-.8363.4506-.0205-.004-.0408-.0076-.0612-.0103,0,0-4.0241,3.0783-.7669,8.2319.0452.1978,3.3381,4.2948,5.6728,6.6504Z"/><path class="t" d="M87.4764,80.3151c-9.4989.1191-18.1148,1.3692-24.4809,3.3104l.1993,15.8972c6.4127,1.781,15.0572,2.8147,24.5562,2.6956,10.8717-.1363,20.5861-1.7541,27.0943-4.1938l-.1779-14.1956c-6.5674-2.276-16.3192-3.65-27.1909-3.5137Z"/><path class="r" d="M56.7721,94.7749l.0005.0011c.0135.0103.026.0196-.0005-.0011Z"/><path class="w" d="M121.3362,88.5409c-.0663-.2203-.1323-.4405-.2004-.6587l2.1739-3.2354c.2218-.3291.2626-.7538.1108-1.124-.1518-.3683-.4763-.6299-.8574-.6901l-3.7522-.5885c-.1486-.2942-.3044-.5838-.4606-.8711l1.5278-3.6208c.1573-.3691.1177-.795-.1009-1.1252-.2179-.3319-.5832-.5227-.9697-.5027l-3.798.1857c-.2-.2537-.403-.5051-.6101-.7517l.8249-3.8709c.0835-.3932-.0333-.802-.3097-1.0833-.275-.2803-.671-.3928-1.0449-.296l-3.6897.9562c-.2423-.2088-.4887-.4149-.7377-.6167l.0837-3.9644c.0093-.4013-.1825-.7801-.5065-.9987-.3236-.22-.7316-.2487-1.0804-.0778l-3.4322,1.6847c-.2801-.156-.5616-.3105-.8461-.4597l-.6591-3.8974c-.0668-.3948-.3256-.7276-.6841-.8766-.3572-.1498-.7639-.0949-1.0729.1439l-3.0494,2.3483c-.3043-.0969-.61-.1896-.9195-.278l-1.3732-3.6865c-.1397-.3756-.4542-.649-.8346-.7222-.379-.0725-.7664.0632-1.0249.3594l-2.5548,2.9314c-.3138-.0322-.6276-.0611-.9424-.0843l-2.0428-3.3458c-.2071-.3389-.5676-.5423-.9534-.5374-.3849.0048-.741.2171-.9377.5611l-1.959,3.396c-.3141.0311-.6286.0679-.9409.1079l-2.6277-2.8664c-.2661-.2896-.6582-.4156-1.034-.3336-.3782.0836-.6864.3638-.8158.7429l-1.2815,3.7198c-.3063.0961-.6096.1972-.9122.3009l-3.1062-2.2711c-.3158-.2318-.7238-.2764-1.078-.117-.353.1579-.6044.4971-.661.8935l-.5616,3.9127c-.2805.1563-.5582.3169-.835.4808l-3.473-1.5982c-.3527-.1627-.7615-.1231-1.078.1049-.318.2266-.5006.6101-.481,1.011l.1821,3.961c-.2431.208-.4836.4202-.7219.635l-3.7118-.8634c-.3772-.0866-.7697.035-1.0382.3221-.2703.2882-.3761.6998-.2832,1.0908l.92,3.849c-.1991.2527-.396.5081-.5889.7667l-3.8014-.0904c-.3837-.0065-.7473.1896-.9573.5268-.2105.3356-.2376.7623-.0733,1.1274l1.6193,3.5814c-.1493.2911-.2975.5846-.44.8824l-3.736.6823c-.3796.0688-.6969.3383-.8401.7113-.1423.374-.0893.7974.1393,1.1209l2.2549,3.1799c-.0164.0568-.0314.1141-.0477.1712l-1.2007,1.3078,3.3298,4.5809s31.583,14.0916,60.5324-.5136c3.3198-.6387,4.0317-5.7204,4.0317-5.7204Z"/><path class="u" d="M93.5344,86.2807s3.4274-3.8486,6.9503-.0871c0,0,2.7942,5.0396.0954,7.6104,0,0-4.4235,3.6076-6.9503.0871,0,0-3.0138-2.7533-.0954-7.6104Z"/><path class="v" d="M97.5754,87.6419c.0186,1.4817-.8398,2.6939-1.9169,2.7074s-1.9654-1.1768-1.984-2.6585.8397-2.6939,1.9167-2.7074,1.9656,1.1769,1.9842,2.6585Z"/><path class="u" d="M78.011,85.4362s5.9281-2.7141,7.6289,3.1567c0,0,1.7904,6.8451-4.8043,7.3155,0,0-8.436-1.5154-2.8246-10.4721Z"/><path class="v" d="M81.0369,87.9465c.0192,1.5279-.8659,2.7784-1.977,2.7923s-2.027-1.214-2.0461-2.7419.8661-2.7784,1.9768-2.7923,2.0272,1.2137,2.0463,2.7419Z"/><path class="w" d="M57.8022,95.5668c.7801-.9093,2.6892-2.0226,2.5249-3.372-.2939-2.4161-2.3224-4.1569-4.5306-3.8881-.5477.0666-1.0548.2508-1.5036.5267-.0334-.0073-.0669-.0144-.1004-.02,0,0-7.4322,3.7648-3.0778,11.0564.0448.3702,8.645,11.1267,11.0323,11.9241,1.5625.5219-1.5532-9.2649-4.3449-16.2271Z"/><path class="w" d="M118.5547,94.4774c-.9256-.7607-3.3496-1.4317-3.4213-2.7891-.1283-2.4305,1.5684-4.4959,3.7899-4.6132.5509-.0291,1.0823.0646,1.5719.2587.0317-.013.0635-.0258.0955-.0371,0,0,7.9712,2.4226,4.9434,10.3574.0198.3724-6.5898,12.4543-8.8033,13.6526-1.4487.7843.2784-9.4893,1.8239-16.8294Z"/><path class="w" d="M63.5386,95.2309s.0244,9.9088,9.7614,11.9979l1.9735-4.0926s-7.0269.7687-7.6776-7.9561l-4.0573.0509Z"/><path class="w" d="M112.9855,94.6111s.2239,9.9063-9.4577,12.2388l-2.0754-4.0419s7.044.5924,7.4757-8.146l4.0574-.0509Z"/><path class="w" d="M106.0984,104.8041c-1.5056-3.5134-6.2386-4.8565-10.5714-2.9998-3.8138,1.6342-6.0433,5.2024-5.4967,8.4298,3.0263-.085,6.2707-.3219,9.4254-.8195,0,0-1.8267,3.0371-4.5373,5.7016,1.8509.4531,4.0009.294,6.0607-.5887,4.3329-1.8567,6.6249-6.2101,5.1194-9.7234Z"/><path class="w" d="M79.134,109.5008s3.9902.4765,9.4377.5425c.434-3.4345-2.2086-7.0303-6.3698-8.382-4.5973-1.4932-9.3056.3182-10.5165,4.0459-1.2109,3.7278,1.5343,7.9603,6.1316,9.4536,2.0379.662,4.0973.6739,5.8646.158-2.6966-2.6009-4.5475-5.818-4.5475-5.818Z"/></g></svg>